# Blender 4.1.1
# www.blender.org
mtllib Ghost.mtl
o Body
v -0.950000 2.000000 0.475000
v -0.950000 2.050000 0.500000
v -1.000000 2.050000 0.475000
v -0.950000 3.950000 0.500000
v -0.950000 4.000000 0.475000
v -1.000000 3.950000 0.475000
v -0.950000 2.000000 -0.475000
v -1.000000 2.050000 -0.475000
v -0.950000 2.050000 -0.500000
v -0.950000 4.000000 -0.475000
v -0.950000 3.950000 -0.500000
v -1.000000 3.950000 -0.475000
v 0.950000 2.000000 0.475000
v 1.000000 2.050000 0.475000
v 0.950000 2.050000 0.500000
v 0.950000 4.000000 0.475000
v 0.950000 3.950000 0.500000
v 1.000000 3.950000 0.475000
v 0.950000 2.000000 -0.475000
v 0.950000 2.050000 -0.500000
v 1.000000 2.050000 -0.475000
v 0.950000 4.000000 -0.475000
v 1.000000 3.950000 -0.475000
v 0.950000 3.950000 -0.500000
vn -0.0000 -0.0000 1.0000
vn 1.0000 -0.0000 -0.0000
vn -0.0000 1.0000 -0.0000
vn -1.0000 -0.0000 -0.0000
vn -0.0000 -0.0000 -1.0000
vn -0.4082 -0.4082 0.8165
vn -0.4082 0.4082 0.8165
vn -0.4082 -0.4082 -0.8165
vn -0.4082 0.4082 -0.8165
vn 0.4082 -0.4082 0.8165
vn 0.4082 0.4082 0.8165
vn 0.4082 -0.4082 -0.8165
vn 0.4082 0.4082 -0.8165
vn -0.7071 -0.7071 -0.0000
vn -0.4472 -0.0000 0.8944
vn -0.7071 0.7071 -0.0000
vn -0.4472 -0.0000 -0.8944
vn -0.0000 -0.4472 -0.8944
vn -0.0000 0.4472 -0.8944
vn 0.4472 -0.0000 -0.8944
vn 0.7071 -0.7071 -0.0000
vn 0.7071 0.7071 -0.0000
vn 0.4472 -0.0000 0.8944
vn -0.0000 -0.4472 0.8944
vn -0.0000 0.4472 0.8944
vn -0.0000 -1.0000 -0.0000
vt 0.381250 0.756250
vt 0.618750 0.756250
vt 0.618750 0.993750
vt 0.381250 0.993750
vt 0.381250 0.506250
vt 0.618750 0.506250
vt 0.618750 0.743750
vt 0.381250 0.743750
vt 0.631250 0.506250
vt 0.868750 0.506250
vt 0.868750 0.743750
vt 0.631250 0.743750
vt 0.381250 0.006250
vt 0.618750 0.006250
vt 0.618750 0.243750
vt 0.381250 0.243750
vt 0.381250 0.256250
vt 0.618750 0.256250
vt 0.618750 0.493750
vt 0.381250 0.493750
vt 0.131250 0.743750
vt 0.131250 0.750000
vt 0.125000 0.743750
vt 0.618750 0.000000
vt 0.625000 0.006250
vt 0.131250 0.506250
vt 0.125000 0.506250
vt 0.131250 0.500000
vt 0.625000 0.243750
vt 0.618750 0.250000
vt 0.368750 0.743750
vt 0.375000 0.743750
vt 0.368750 0.750000
vt 0.625000 0.756250
vt 0.618750 0.750000
vt 0.368750 0.506250
vt 0.368750 0.500000
vt 0.375000 0.506250
vt 0.625000 0.493750
vt 0.618750 0.500000
vt 0.381250 0.000000
vt 0.625000 0.256250
vt 0.368750 0.750000
vt 0.625000 0.993750
s 0
f 15/1/1 17/2/1 4/3/1 2/4/1
f 21/5/2 23/6/2 18/7/2 14/8/2
f 22/9/3 10/10/3 5/11/3 16/12/3
f 3/13/4 6/14/4 12/15/4 8/16/4
f 9/17/5 11/18/5 24/19/5 20/20/5
f 1/21/6 2/22/6 3/23/6
f 4/24/7 5/25/7 6/14/7
f 7/26/8 8/27/8 9/28/8
f 10/29/9 11/30/9 12/15/9
f 13/31/10 14/32/10 15/33/10
f 16/34/11 17/2/11 18/35/11
f 19/36/12 20/37/12 21/38/12
f 22/39/13 23/40/13 24/19/13
f 7/26/14 1/21/14 3/23/14 8/27/14
f 2/41/15 4/24/15 6/14/15 3/13/15
f 5/25/16 10/29/16 12/15/16 6/14/16
f 11/18/17 9/17/17 8/16/17 12/15/17
f 19/36/18 7/26/18 9/28/18 20/37/18
f 10/42/19 22/39/19 24/19/19 11/18/19
f 23/6/20 21/5/20 20/20/20 24/19/20
f 13/31/21 19/36/21 21/5/21 14/8/21
f 22/9/22 16/12/22 18/7/22 23/6/22
f 17/2/23 15/1/23 14/8/23 18/7/23
f 1/21/24 13/31/24 15/43/24 2/22/24
f 16/34/25 5/44/25 4/3/25 17/2/25
f 7/26/26 19/36/26 13/31/26 1/21/26
o RightLeg
v 0.025000 0.313209 1.092728
v 0.025000 0.358091 1.104649
v 0.000000 0.357004 1.077609
v 0.025000 1.950000 0.500000
v 0.025000 2.000000 0.475000
v 0.000000 1.950000 0.475000
v 0.025000 0.313209 0.142728
v 0.000000 0.357004 0.129691
v 0.025000 0.355925 0.102675
v 0.025000 2.000000 -0.475000
v 0.025000 1.950000 -0.500000
v 0.000000 1.950000 -0.475000
v 0.975000 0.313209 1.092728
v 1.000000 0.357004 1.077609
v 0.975000 0.358091 1.104649
v 0.975000 2.000000 0.475000
v 0.975000 1.950000 0.500000
v 1.000000 1.950000 0.475000
v 0.975000 0.313209 0.142728
v 0.975000 0.355925 0.102675
v 1.000000 0.357004 0.129691
v 0.975000 2.000000 -0.475000
v 1.000000 1.950000 -0.475000
v 0.975000 1.950000 -0.500000
v 0.025000 1.000000 0.508162
v 0.000000 1.000000 0.483361
v 0.025000 1.000000 -0.501261
v 0.000000 1.000000 -0.478383
v 1.000000 1.000000 -0.478383
v 0.975000 1.000000 -0.501261
v 0.975000 1.000000 0.508162
v 1.000000 1.000000 0.483361
v 0.000000 0.678502 0.694497
v 0.025000 0.677962 -0.357005
v 1.000000 0.678502 -0.332005
v 0.975000 0.679046 0.720769
v 0.025000 0.679046 0.720769
v 0.000000 0.678502 -0.332005
v 0.975000 0.677962 -0.357005
v 1.000000 0.678502 0.694497
vn -0.0000 0.0086 1.0000
vn 1.0000 -0.0000 -0.0000
vn -0.0000 1.0000 -0.0000
vn -1.0000 -0.0000 -0.0000
vn -0.0000 0.0013 -1.0000
vn -0.7189 -0.1784 0.6718
vn -0.6667 0.3333 0.6667
vn -0.6331 -0.5295 -0.5647
vn -0.6667 0.3333 -0.6667
vn 0.7189 -0.1784 0.6718
vn 0.6667 0.3333 0.6667
vn 0.6331 -0.5295 -0.5647
vn 0.6667 0.3333 -0.6667
vn -0.8685 -0.4958 -0.0000
vn -0.7057 0.0062 0.7085
vn -0.8944 0.4472 -0.0000
vn -0.5283 -0.6961 -0.4862
vn -0.0000 -0.6840 -0.7295
vn -0.0000 0.4472 -0.8944
vn 0.5283 -0.6961 -0.4862
vn 0.8685 -0.4958 -0.0000
vn 0.8944 0.4472 -0.0000
vn 0.5788 0.6252 0.5237
vn -0.0000 -0.2567 0.9665
vn -0.0000 0.4472 0.8944
vn -0.0000 -1.0000 -0.0000
vn 0.7057 0.0062 0.7085
vn 0.6916 0.0018 -0.7223
vn -0.6916 0.0018 -0.7223
vn -0.6515 0.4177 0.6333
vn -0.0000 -0.4088 -0.9126
vn -0.0000 0.5522 0.8337
vn -0.0000 0.7672 0.6414
vn -0.0000 -0.8190 -0.5738
vn -0.5788 0.6252 0.5237
vn 0.6515 0.4177 0.6333
vn 0.6594 -0.3094 -0.6852
vn -0.6594 -0.3094 -0.6852
vt 0.500000 0.756250
vt 0.618750 0.756250
vt 0.618750 0.993750
vt 0.500000 0.993750
vt 0.500000 0.506250
vt 0.618750 0.506250
vt 0.618750 0.743750
vt 0.500000 0.743750
vt 0.631250 0.506250
vt 0.868750 0.506250
vt 0.868750 0.743750
vt 0.631250 0.743750
vt 0.500000 0.006250
vt 0.618750 0.006250
vt 0.618750 0.243750
vt 0.500000 0.243750
vt 0.500000 0.256250
vt 0.618750 0.256250
vt 0.618750 0.493750
vt 0.500000 0.493750
vt 0.131250 0.743750
vt 0.131250 0.750000
vt 0.125000 0.743750
vt 0.618750 0.000000
vt 0.625000 0.006250
vt 0.131250 0.506250
vt 0.125000 0.506250
vt 0.131250 0.500000
vt 0.625000 0.243750
vt 0.618750 0.250000
vt 0.368750 0.743750
vt 0.375000 0.743750
vt 0.368750 0.750000
vt 0.625000 0.756250
vt 0.618750 0.750000
vt 0.368750 0.506250
vt 0.368750 0.500000
vt 0.375000 0.506250
vt 0.625000 0.493750
vt 0.618750 0.500000
vt 0.500000 0.000000
vt 0.440625 0.256250
vt 0.381250 0.256250
vt 0.381250 0.243750
vt 0.440625 0.243750
vt 0.625000 0.256250
vt 0.440625 0.506250
vt 0.381250 0.506250
vt 0.381250 0.493750
vt 0.440625 0.493750
vt 0.381250 0.743750
vt 0.440625 0.756250
vt 0.381250 0.756250
vt 0.440625 0.743750
vt 0.368750 0.750000
vt 0.625000 0.993750
vt 0.440625 0.000000
vt 0.440625 0.006250
vt 0.440625 0.993750
vt 0.381250 0.993750
vt 0.381250 0.006250
vt 0.381250 0.000000
s 0
f 55/45/27 41/46/27 28/47/27 49/48/27
f 53/49/28 47/50/28 42/51/28 56/52/28
f 46/53/29 34/54/29 29/55/29 40/56/29
f 50/57/30 30/58/30 36/59/30 52/60/30
f 51/61/31 35/62/31 48/63/31 54/64/31
f 25/65/32 26/66/32 27/67/32
f 28/68/33 29/69/33 30/58/33
f 31/70/34 32/71/34 33/72/34
f 34/73/35 35/74/35 36/59/35
f 37/75/36 38/76/36 39/77/36
f 40/78/37 41/46/37 42/79/37
f 43/80/38 44/81/38 45/82/38
f 46/83/39 47/84/39 48/63/39
f 31/70/40 25/65/40 27/67/40 32/71/40
f 49/85/41 28/68/41 30/58/41 50/57/41
f 29/69/42 34/73/42 36/59/42 30/58/42
f 58/86/43 33/87/43 32/88/43 62/89/43
f 43/80/44 31/70/44 33/72/44 44/81/44
f 34/90/45 46/83/45 48/63/45 35/62/45
f 59/91/46 45/92/46 44/93/46 63/94/46
f 37/75/47 43/80/47 45/92/47 38/95/47
f 46/53/48 40/56/48 42/51/48 47/50/48
f 60/96/49 39/97/49 38/95/49 64/98/49
f 25/65/50 37/75/50 39/99/50 26/66/50
f 40/78/51 29/100/51 28/47/51 41/46/51
f 31/70/52 43/80/52 37/75/52 25/65/52
f 41/46/53 55/45/53 56/52/53 42/51/53
f 47/50/54 53/49/54 54/64/54 48/63/54
f 35/62/55 51/61/55 52/60/55 36/59/55
f 61/101/56 49/85/56 50/57/56 57/102/56
f 58/86/57 51/61/57 54/64/57 63/94/57
f 57/102/30 50/57/30 52/60/30 62/89/30
f 59/91/28 53/49/28 56/52/28 64/98/28
f 60/96/58 55/45/58 49/48/58 61/103/58
f 39/97/59 60/96/59 61/103/59 26/104/59
f 45/92/28 59/91/28 64/98/28 38/95/28
f 27/105/30 57/102/30 62/89/30 32/88/30
f 33/87/60 58/86/60 63/94/60 44/93/60
f 26/106/61 61/101/61 57/102/61 27/105/61
f 55/45/62 60/96/62 64/98/62 56/52/62
f 53/49/63 59/91/63 63/94/63 54/64/63
f 51/61/64 58/86/64 62/89/64 52/60/64
o LeftLeg
v -0.975000 0.313209 1.092728
v -0.975000 0.358091 1.104649
v -1.000000 0.357004 1.077609
v -0.975000 1.950000 0.500000
v -0.975000 2.000000 0.475000
v -1.000000 1.950000 0.475000
v -0.975000 0.313209 0.142728
v -1.000000 0.357004 0.129691
v -0.975000 0.355925 0.102675
v -0.975000 2.000000 -0.475000
v -0.975000 1.950000 -0.500000
v -1.000000 1.950000 -0.475000
v -0.025000 0.313209 1.092728
v 0.000000 0.357004 1.077609
v -0.025000 0.358091 1.104649
v -0.025000 2.000000 0.475000
v -0.025000 1.950000 0.500000
v 0.000000 1.950000 0.475000
v -0.025000 0.313209 0.142728
v -0.025000 0.355925 0.102675
v 0.000000 0.357004 0.129691
v -0.025000 2.000000 -0.475000
v 0.000000 1.950000 -0.475000
v -0.025000 1.950000 -0.500000
v -0.975000 1.000000 0.508162
v -1.000000 1.000000 0.483361
v -0.975000 1.000000 -0.501261
v -1.000000 1.000000 -0.478383
v 0.000000 1.000000 -0.478383
v -0.025000 1.000000 -0.501261
v -0.025000 1.000000 0.508162
v 0.000000 1.000000 0.483361
v -1.000000 0.678502 0.694497
v -0.975000 0.677962 -0.357005
v 0.000000 0.678502 -0.332005
v -0.025000 0.679046 0.720769
v -0.975000 0.679046 0.720769
v -1.000000 0.678502 -0.332005
v -0.025000 0.677962 -0.357005
v 0.000000 0.678502 0.694497
vn -0.0000 0.0086 1.0000
vn 1.0000 -0.0000 -0.0000
vn -0.0000 1.0000 -0.0000
vn -1.0000 -0.0000 -0.0000
vn -0.0000 0.0013 -1.0000
vn -0.7189 -0.1784 0.6718
vn -0.6667 0.3333 0.6667
vn -0.6331 -0.5295 -0.5647
vn -0.6667 0.3333 -0.6667
vn 0.7189 -0.1784 0.6718
vn 0.6667 0.3333 0.6667
vn 0.6331 -0.5295 -0.5647
vn 0.6667 0.3333 -0.6667
vn -0.8685 -0.4958 -0.0000
vn -0.7057 0.0062 0.7085
vn -0.8944 0.4472 -0.0000
vn -0.5283 -0.6961 -0.4862
vn -0.0000 -0.6840 -0.7295
vn -0.0000 0.4472 -0.8944
vn 0.5283 -0.6961 -0.4862
vn 0.8685 -0.4958 -0.0000
vn 0.8944 0.4472 -0.0000
vn 0.5788 0.6252 0.5237
vn -0.0000 -0.2567 0.9665
vn -0.0000 0.4472 0.8944
vn -0.0000 -1.0000 -0.0000
vn 0.7057 0.0062 0.7085
vn 0.6916 0.0018 -0.7223
vn -0.6916 0.0018 -0.7223
vn -0.6515 0.4177 0.6333
vn -0.0000 -0.4088 -0.9126
vn -0.0000 0.5522 0.8337
vn -0.0000 0.7672 0.6414
vn -0.0000 -0.8190 -0.5738
vn -0.5788 0.6252 0.5237
vn 0.6515 0.4177 0.6333
vn 0.6594 -0.3094 -0.6852
vn -0.6594 -0.3094 -0.6852
vt 0.500000 0.756250
vt 0.618750 0.756250
vt 0.618750 0.993750
vt 0.500000 0.993750
vt 0.500000 0.506250
vt 0.618750 0.506250
vt 0.618750 0.743750
vt 0.500000 0.743750
vt 0.631250 0.506250
vt 0.868750 0.506250
vt 0.868750 0.743750
vt 0.631250 0.743750
vt 0.500000 0.006250
vt 0.618750 0.006250
vt 0.618750 0.243750
vt 0.500000 0.243750
vt 0.500000 0.256250
vt 0.618750 0.256250
vt 0.618750 0.493750
vt 0.500000 0.493750
vt 0.131250 0.743750
vt 0.131250 0.750000
vt 0.125000 0.743750
vt 0.618750 0.000000
vt 0.625000 0.006250
vt 0.131250 0.506250
vt 0.125000 0.506250
vt 0.131250 0.500000
vt 0.625000 0.243750
vt 0.618750 0.250000
vt 0.368750 0.743750
vt 0.375000 0.743750
vt 0.368750 0.750000
vt 0.625000 0.756250
vt 0.618750 0.750000
vt 0.368750 0.506250
vt 0.368750 0.500000
vt 0.375000 0.506250
vt 0.625000 0.493750
vt 0.618750 0.500000
vt 0.500000 0.000000
vt 0.440625 0.256250
vt 0.381250 0.256250
vt 0.381250 0.243750
vt 0.440625 0.243750
vt 0.625000 0.256250
vt 0.440625 0.506250
vt 0.381250 0.506250
vt 0.381250 0.493750
vt 0.440625 0.493750
vt 0.381250 0.743750
vt 0.440625 0.756250
vt 0.381250 0.756250
vt 0.440625 0.743750
vt 0.368750 0.750000
vt 0.625000 0.993750
vt 0.440625 0.000000
vt 0.440625 0.006250
vt 0.440625 0.993750
vt 0.381250 0.993750
vt 0.381250 0.006250
vt 0.381250 0.000000
s 0
f 95/107/65 81/108/65 68/109/65 89/110/65
f 93/111/66 87/112/66 82/113/66 96/114/66
f 86/115/67 74/116/67 69/117/67 80/118/67
f 90/119/68 70/120/68 76/121/68 92/122/68
f 91/123/69 75/124/69 88/125/69 94/126/69
f 65/127/70 66/128/70 67/129/70
f 68/130/71 69/131/71 70/120/71
f 71/132/72 72/133/72 73/134/72
f 74/135/73 75/136/73 76/121/73
f 77/137/74 78/138/74 79/139/74
f 80/140/75 81/108/75 82/141/75
f 83/142/76 84/143/76 85/144/76
f 86/145/77 87/146/77 88/125/77
f 71/132/78 65/127/78 67/129/78 72/133/78
f 89/147/79 68/130/79 70/120/79 90/119/79
f 69/131/80 74/135/80 76/121/80 70/120/80
f 98/148/81 73/149/81 72/150/81 102/151/81
f 83/142/82 71/132/82 73/134/82 84/143/82
f 74/152/83 86/145/83 88/125/83 75/124/83
f 99/153/84 85/154/84 84/155/84 103/156/84
f 77/137/85 83/142/85 85/154/85 78/157/85
f 86/115/86 80/118/86 82/113/86 87/112/86
f 100/158/87 79/159/87 78/157/87 104/160/87
f 65/127/88 77/137/88 79/161/88 66/128/88
f 80/140/89 69/162/89 68/109/89 81/108/89
f 71/132/90 83/142/90 77/137/90 65/127/90
f 81/108/91 95/107/91 96/114/91 82/113/91
f 87/112/92 93/111/92 94/126/92 88/125/92
f 75/124/93 91/123/93 92/122/93 76/121/93
f 101/163/94 89/147/94 90/119/94 97/164/94
f 98/148/95 91/123/95 94/126/95 103/156/95
f 97/164/68 90/119/68 92/122/68 102/151/68
f 99/153/66 93/111/66 96/114/66 104/160/66
f 100/158/96 95/107/96 89/110/96 101/165/96
f 79/159/97 100/158/97 101/165/97 66/166/97
f 85/154/66 99/153/66 104/160/66 78/157/66
f 67/167/68 97/164/68 102/151/68 72/150/68
f 73/149/98 98/148/98 103/156/98 84/155/98
f 66/168/99 101/163/99 97/164/99 67/167/99
f 95/107/100 100/158/100 104/160/100 96/114/100
f 93/111/101 99/153/101 103/156/101 94/126/101
f 91/123/102 98/148/102 102/151/102 92/122/102
o LeftArm
v -1.975000 2.000000 0.475000
v -1.975000 2.050000 0.500000
v -2.000000 2.050000 0.475000
v -1.975000 3.950000 0.500000
v -1.975000 4.000000 0.475000
v -2.000000 3.950000 0.475000
v -1.975000 2.000000 -0.475000
v -2.000000 2.050000 -0.475000
v -1.975000 2.050000 -0.500000
v -1.975000 4.000000 -0.475000
v -1.975000 3.950000 -0.500000
v -2.000000 3.950000 -0.475000
v -1.025000 2.000000 0.475000
v -1.000000 2.050000 0.475000
v -1.025000 2.050000 0.500000
v -1.025000 4.000000 0.475000
v -1.025000 3.950000 0.500000
v -1.000000 3.950000 0.475000
v -1.025000 2.000000 -0.475000
v -1.025000 2.050000 -0.500000
v -1.000000 2.050000 -0.475000
v -1.025000 4.000000 -0.475000
v -1.000000 3.950000 -0.475000
v -1.025000 3.950000 -0.500000
vn -0.0000 -0.0000 1.0000
vn 1.0000 -0.0000 -0.0000
vn -0.0000 1.0000 -0.0000
vn -1.0000 -0.0000 -0.0000
vn -0.0000 -0.0000 -1.0000
vn -0.6667 -0.3333 0.6667
vn -0.6667 0.3333 0.6667
vn -0.6667 -0.3333 -0.6667
vn -0.6667 0.3333 -0.6667
vn 0.6667 -0.3333 0.6667
vn 0.6667 0.3333 0.6667
vn 0.6667 -0.3333 -0.6667
vn 0.6667 0.3333 -0.6667
vn -0.8944 -0.4472 -0.0000
vn -0.7071 -0.0000 0.7071
vn -0.8944 0.4472 -0.0000
vn -0.7071 -0.0000 -0.7071
vn -0.0000 -0.4472 -0.8944
vn -0.0000 0.4472 -0.8944
vn 0.7071 -0.0000 -0.7071
vn 0.8944 -0.4472 -0.0000
vn 0.8944 0.4472 -0.0000
vn 0.7071 -0.0000 0.7071
vn -0.0000 -0.4472 0.8944
vn -0.0000 0.4472 0.8944
vn -0.0000 -1.0000 -0.0000
vt 0.381250 0.756250
vt 0.618750 0.756250
vt 0.618750 0.993750
vt 0.381250 0.993750
vt 0.381250 0.506250
vt 0.618750 0.506250
vt 0.618750 0.743750
vt 0.381250 0.743750
vt 0.631250 0.506250
vt 0.868750 0.506250
vt 0.868750 0.743750
vt 0.631250 0.743750
vt 0.381250 0.006250
vt 0.618750 0.006250
vt 0.618750 0.243750
vt 0.381250 0.243750
vt 0.381250 0.256250
vt 0.618750 0.256250
vt 0.618750 0.493750
vt 0.381250 0.493750
vt 0.131250 0.743750
vt 0.131250 0.750000
vt 0.125000 0.743750
vt 0.618750 0.000000
vt 0.625000 0.006250
vt 0.131250 0.506250
vt 0.125000 0.506250
vt 0.131250 0.500000
vt 0.625000 0.243750
vt 0.618750 0.250000
vt 0.368750 0.743750
vt 0.375000 0.743750
vt 0.368750 0.750000
vt 0.625000 0.756250
vt 0.618750 0.750000
vt 0.368750 0.506250
vt 0.368750 0.500000
vt 0.375000 0.506250
vt 0.625000 0.493750
vt 0.618750 0.500000
vt 0.381250 0.000000
vt 0.625000 0.256250
vt 0.368750 0.750000
vt 0.625000 0.993750
s 0
f 119/169/103 121/170/103 108/171/103 106/172/103
f 125/173/104 127/174/104 122/175/104 118/176/104
f 126/177/105 114/178/105 109/179/105 120/180/105
f 107/181/106 110/182/106 116/183/106 112/184/106
f 113/185/107 115/186/107 128/187/107 124/188/107
f 105/189/108 106/190/108 107/191/108
f 108/192/109 109/193/109 110/182/109
f 111/194/110 112/195/110 113/196/110
f 114/197/111 115/198/111 116/183/111
f 117/199/112 118/200/112 119/201/112
f 120/202/113 121/170/113 122/203/113
f 123/204/114 124/205/114 125/206/114
f 126/207/115 127/208/115 128/187/115
f 111/194/116 105/189/116 107/191/116 112/195/116
f 106/209/117 108/192/117 110/182/117 107/181/117
f 109/193/118 114/197/118 116/183/118 110/182/118
f 115/186/119 113/185/119 112/184/119 116/183/119
f 123/204/120 111/194/120 113/196/120 124/205/120
f 114/210/121 126/207/121 128/187/121 115/186/121
f 127/174/122 125/173/122 124/188/122 128/187/122
f 117/199/123 123/204/123 125/173/123 118/176/123
f 126/177/124 120/180/124 122/175/124 127/174/124
f 121/170/125 119/169/125 118/176/125 122/175/125
f 105/189/126 117/199/126 119/211/126 106/190/126
f 120/202/127 109/212/127 108/171/127 121/170/127
f 111/194/128 123/204/128 117/199/128 105/189/128
o RightArm
v 1.025000 2.000000 0.475000
v 1.025000 2.050000 0.500000
v 1.000000 2.050000 0.475000
v 1.025000 3.950000 0.500000
v 1.025000 4.000000 0.475000
v 1.000000 3.950000 0.475000
v 1.025000 2.000000 -0.475000
v 1.000000 2.050000 -0.475000
v 1.025000 2.050000 -0.500000
v 1.025000 4.000000 -0.475000
v 1.025000 3.950000 -0.500000
v 1.000000 3.950000 -0.475000
v 1.975000 2.000000 0.475000
v 2.000000 2.050000 0.475000
v 1.975000 2.050000 0.500000
v 1.975000 4.000000 0.475000
v 1.975000 3.950000 0.500000
v 2.000000 3.950000 0.475000
v 1.975000 2.000000 -0.475000
v 1.975000 2.050000 -0.500000
v 2.000000 2.050000 -0.475000
v 1.975000 4.000000 -0.475000
v 2.000000 3.950000 -0.475000
v 1.975000 3.950000 -0.500000
vn -0.0000 -0.0000 1.0000
vn 1.0000 -0.0000 -0.0000
vn -0.0000 1.0000 -0.0000
vn -1.0000 -0.0000 -0.0000
vn -0.0000 -0.0000 -1.0000
vn -0.6667 -0.3333 0.6667
vn -0.6667 0.3333 0.6667
vn -0.6667 -0.3333 -0.6667
vn -0.6667 0.3333 -0.6667
vn 0.6667 -0.3333 0.6667
vn 0.6667 0.3333 0.6667
vn 0.6667 -0.3333 -0.6667
vn 0.6667 0.3333 -0.6667
vn -0.8944 -0.4472 -0.0000
vn -0.7071 -0.0000 0.7071
vn -0.8944 0.4472 -0.0000
vn -0.7071 -0.0000 -0.7071
vn -0.0000 -0.4472 -0.8944
vn -0.0000 0.4472 -0.8944
vn 0.7071 -0.0000 -0.7071
vn 0.8944 -0.4472 -0.0000
vn 0.8944 0.4472 -0.0000
vn 0.7071 -0.0000 0.7071
vn -0.0000 -0.4472 0.8944
vn -0.0000 0.4472 0.8944
vn -0.0000 -1.0000 -0.0000
vt 0.381250 0.756250
vt 0.618750 0.756250
vt 0.618750 0.993750
vt 0.381250 0.993750
vt 0.381250 0.506250
vt 0.618750 0.506250
vt 0.618750 0.743750
vt 0.381250 0.743750
vt 0.631250 0.506250
vt 0.868750 0.506250
vt 0.868750 0.743750
vt 0.631250 0.743750
vt 0.381250 0.006250
vt 0.618750 0.006250
vt 0.618750 0.243750
vt 0.381250 0.243750
vt 0.381250 0.256250
vt 0.618750 0.256250
vt 0.618750 0.493750
vt 0.381250 0.493750
vt 0.131250 0.743750
vt 0.131250 0.750000
vt 0.125000 0.743750
vt 0.618750 0.000000
vt 0.625000 0.006250
vt 0.131250 0.506250
vt 0.125000 0.506250
vt 0.131250 0.500000
vt 0.625000 0.243750
vt 0.618750 0.250000
vt 0.368750 0.743750
vt 0.375000 0.743750
vt 0.368750 0.750000
vt 0.625000 0.756250
vt 0.618750 0.750000
vt 0.368750 0.506250
vt 0.368750 0.500000
vt 0.375000 0.506250
vt 0.625000 0.493750
vt 0.618750 0.500000
vt 0.381250 0.000000
vt 0.625000 0.256250
vt 0.368750 0.750000
vt 0.625000 0.993750
s 0
f 143/213/129 145/214/129 132/215/129 130/216/129
f 149/217/130 151/218/130 146/219/130 142/220/130
f 150/221/131 138/222/131 133/223/131 144/224/131
f 131/225/132 134/226/132 140/227/132 136/228/132
f 137/229/133 139/230/133 152/231/133 148/232/133
f 129/233/134 130/234/134 131/235/134
f 132/236/135 133/237/135 134/226/135
f 135/238/136 136/239/136 137/240/136
f 138/241/137 139/242/137 140/227/137
f 141/243/138 142/244/138 143/245/138
f 144/246/139 145/214/139 146/247/139
f 147/248/140 148/249/140 149/250/140
f 150/251/141 151/252/141 152/231/141
f 135/238/142 129/233/142 131/235/142 136/239/142
f 130/253/143 132/236/143 134/226/143 131/225/143
f 133/237/144 138/241/144 140/227/144 134/226/144
f 139/230/145 137/229/145 136/228/145 140/227/145
f 147/248/146 135/238/146 137/240/146 148/249/146
f 138/254/147 150/251/147 152/231/147 139/230/147
f 151/218/148 149/217/148 148/232/148 152/231/148
f 141/243/149 147/248/149 149/217/149 142/220/149
f 150/221/150 144/224/150 146/219/150 151/218/150
f 145/214/151 143/213/151 142/220/151 146/219/151
f 129/233/152 141/243/152 143/255/152 130/234/152
f 144/246/153 133/256/153 132/215/153 145/214/153
f 135/238/154 147/248/154 141/243/154 129/233/154
o Head
v -0.000000 4.084157 -0.581005
v 0.000000 4.188890 -0.600139
v 0.113349 4.084157 -0.569842
v 0.117081 4.188890 -0.588608
v 0.222341 4.084157 -0.536779
v 0.229663 4.188890 -0.554457
v 0.322789 4.084157 -0.483088
v 0.333420 4.188890 -0.498998
v 0.410833 4.084157 -0.410833
v 0.424363 4.188890 -0.424363
v 0.483088 4.084157 -0.322789
v 0.498998 4.188890 -0.333420
v 0.536779 4.084157 -0.222341
v 0.554457 4.188890 -0.229663
v 0.569842 4.084157 -0.113349
v 0.588608 4.188890 -0.117081
v 0.581005 4.084157 -0.000000
v 0.600139 4.188890 -0.000000
v 0.569842 4.084157 0.113349
v 0.588608 4.188890 0.117081
v 0.536779 4.084157 0.222341
v 0.554457 4.188890 0.229663
v 0.483088 4.084157 0.322789
v 0.498998 4.188890 0.333420
v 0.410833 4.084157 0.410833
v 0.424363 4.188890 0.424363
v 0.322789 4.084157 0.483088
v 0.333420 4.188890 0.498998
v 0.222341 4.084157 0.536779
v 0.229663 4.188890 0.554457
v 0.113349 4.084157 0.569842
v 0.117081 4.188890 0.588608
v -0.000000 4.084157 0.581005
v 0.000000 4.188890 0.600139
v -0.113349 4.084157 0.569842
v -0.117081 4.188890 0.588608
v -0.222341 4.084157 0.536779
v -0.229663 4.188890 0.554457
v -0.322789 4.084157 0.483088
v -0.333420 4.188890 0.498998
v -0.410833 4.084157 0.410833
v -0.424363 4.188890 0.424363
v -0.483088 4.084157 0.322789
v -0.498998 4.188890 0.333420
v -0.536779 4.084157 0.222341
v -0.554457 4.188890 0.229663
v -0.569842 4.084157 0.113349
v -0.588608 4.188890 0.117081
v -0.581005 4.084157 -0.000000
v -0.600139 4.188890 -0.000000
v -0.569842 4.084157 -0.113349
v -0.588608 4.188890 -0.117081
v -0.536779 4.084157 -0.222341
v -0.554457 4.188890 -0.229663
v -0.483088 4.084157 -0.322789
v -0.498998 4.188890 -0.333420
v -0.410833 4.084157 -0.410833
v -0.424363 4.188890 -0.424363
v -0.322789 4.084157 -0.483088
v -0.333420 4.188890 -0.498998
v -0.222341 4.084157 -0.536779
v -0.229663 4.188890 -0.554457
v -0.113349 4.084157 -0.569842
v -0.117081 4.188890 -0.588608
v 0.000000 3.983931 -0.514643
v 0.100402 3.983931 -0.504754
v 0.196945 3.983931 -0.475468
v 0.285920 3.983931 -0.427910
v 0.363908 3.983931 -0.363908
v 0.427910 3.983931 -0.285920
v 0.475468 3.983931 -0.196945
v 0.504754 3.983931 -0.100402
v 0.514643 3.983931 0.000000
v 0.504754 3.983931 0.100402
v 0.475468 3.983931 0.196945
v 0.427910 3.983931 0.285920
v 0.363908 3.983931 0.363908
v 0.285920 3.983931 0.427910
v 0.196945 3.983931 0.475468
v 0.100402 3.983931 0.504754
v 0.000000 3.983931 0.514643
v -0.100402 3.983931 0.504754
v -0.196945 3.983931 0.475468
v -0.285920 3.983931 0.427910
v -0.363908 3.983931 0.363908
v -0.427910 3.983931 0.285920
v -0.475468 3.983931 0.196945
v -0.504754 3.983931 0.100402
v -0.514643 3.983931 0.000000
v -0.504754 3.983931 -0.100402
v -0.475468 3.983931 -0.196945
v -0.427910 3.983931 -0.285920
v -0.363908 3.983931 -0.363908
v -0.285920 3.983931 -0.427910
v -0.196945 3.983931 -0.475468
v -0.100402 3.983931 -0.504754
v 0.000000 3.921218 -0.420075
v 0.081952 3.921218 -0.412003
v 0.160756 3.921218 -0.388098
v 0.233381 3.921218 -0.349279
v 0.297038 3.921218 -0.297038
v 0.349279 3.921218 -0.233381
v 0.388098 3.921218 -0.160756
v 0.412003 3.921218 -0.081952
v 0.420075 3.921218 0.000000
v 0.412003 3.921218 0.081952
v 0.388098 3.921218 0.160756
v 0.349279 3.921218 0.233381
v 0.297038 3.921218 0.297038
v 0.233381 3.921218 0.349279
v 0.160756 3.921218 0.388098
v 0.081952 3.921218 0.412003
v 0.000000 3.921218 0.420075
v -0.081952 3.921218 0.412003
v -0.160756 3.921218 0.388098
v -0.233381 3.921218 0.349279
v -0.297038 3.921218 0.297038
v -0.349279 3.921218 0.233381
v -0.388098 3.921218 0.160756
v -0.412003 3.921218 0.081952
v -0.420075 3.921218 0.000000
v -0.412003 3.921218 -0.081952
v -0.388098 3.921218 -0.160756
v -0.349279 3.921218 -0.233381
v -0.297038 3.921218 -0.297038
v -0.233381 3.921218 -0.349279
v -0.160756 3.921218 -0.388098
v -0.081952 3.921218 -0.412003
v -0.000000 3.897369 -0.302225
v 0.058961 3.897369 -0.296418
v 0.115656 3.897369 -0.279219
v 0.167907 3.897369 -0.251291
v 0.213705 3.897369 -0.213705
v 0.251291 3.897369 -0.167907
v 0.279219 3.897369 -0.115656
v 0.296418 3.897369 -0.058961
v 0.302225 3.897369 0.000000
v 0.296418 3.897369 0.058961
v 0.279219 3.897369 0.115656
v 0.251291 3.897369 0.167907
v 0.213705 3.897369 0.213705
v 0.167907 3.897369 0.251291
v 0.115656 3.897369 0.279219
v 0.058961 3.897369 0.296418
v -0.000000 3.897369 0.302225
v -0.058961 3.897369 0.296418
v -0.115656 3.897369 0.279219
v -0.167907 3.897369 0.251291
v -0.213705 3.897369 0.213705
v -0.251291 3.897369 0.167907
v -0.279219 3.897369 0.115656
v -0.296418 3.897369 0.058961
v -0.302225 3.897369 0.000000
v -0.296418 3.897369 -0.058961
v -0.279219 3.897369 -0.115656
v -0.251291 3.897369 -0.167907
v -0.213705 3.897369 -0.213705
v -0.167907 3.897369 -0.251291
v -0.115656 3.897369 -0.279219
v -0.058961 3.897369 -0.296418
v 0.000000 4.796984 -0.600139
v 0.117081 4.796984 -0.588608
v 0.229663 4.796984 -0.554457
v 0.333420 4.796984 -0.498998
v 0.424363 4.796984 -0.424363
v 0.498998 4.796984 -0.333420
v 0.554457 4.796984 -0.229663
v 0.588608 4.796984 -0.117081
v 0.600139 4.796984 -0.000000
v 0.588608 4.796984 0.117081
v 0.554457 4.796984 0.229663
v 0.498998 4.796984 0.333420
v 0.424363 4.796984 0.424363
v 0.333420 4.796984 0.498998
v 0.229663 4.796984 0.554457
v 0.117081 4.796984 0.588608
v 0.000000 4.796984 0.600139
v -0.117081 4.796984 0.588608
v -0.229663 4.796984 0.554457
v -0.333420 4.796984 0.498998
v -0.424363 4.796984 0.424363
v -0.498998 4.796984 0.333420
v -0.554457 4.796984 0.229663
v -0.588608 4.796984 0.117081
v -0.600139 4.796984 -0.000000
v -0.588608 4.796984 -0.117081
v -0.554457 4.796984 -0.229663
v -0.498998 4.796984 -0.333420
v -0.424363 4.796984 -0.424363
v -0.333420 4.796984 -0.498998
v -0.229663 4.796984 -0.554457
v -0.117081 4.796984 -0.588608
v -0.000000 4.914021 -0.576365
v 0.112443 4.914021 -0.565291
v 0.220565 4.914021 -0.532492
v 0.320211 4.914021 -0.479230
v 0.407552 4.914021 -0.407552
v 0.479230 4.914021 -0.320211
v 0.532492 4.914021 -0.220565
v 0.565291 4.914021 -0.112443
v 0.576365 4.914021 -0.000000
v 0.565291 4.914021 0.112443
v 0.532492 4.914021 0.220565
v 0.479230 4.914021 0.320211
v 0.407552 4.914021 0.407552
v 0.320211 4.914021 0.479230
v 0.220565 4.914021 0.532492
v 0.112443 4.914021 0.565291
v -0.000000 4.914021 0.576365
v -0.112443 4.914021 0.565291
v -0.220565 4.914021 0.532492
v -0.320211 4.914021 0.479230
v -0.407552 4.914021 0.407552
v -0.479230 4.914021 0.320211
v -0.532492 4.914021 0.220565
v -0.565291 4.914021 0.112443
v -0.576365 4.914021 -0.000000
v -0.565291 4.914021 -0.112443
v -0.532492 4.914021 -0.220565
v -0.479230 4.914021 -0.320211
v -0.407552 4.914021 -0.407552
v -0.320211 4.914021 -0.479230
v -0.220565 4.914021 -0.532492
v -0.112443 4.914021 -0.565291
v 0.000000 5.011184 -0.514713
v 0.100415 5.011184 -0.504822
v 0.196972 5.011184 -0.475532
v 0.285959 5.011184 -0.427968
v 0.363957 5.011184 -0.363957
v 0.427968 5.011184 -0.285959
v 0.475532 5.011184 -0.196972
v 0.504822 5.011184 -0.100415
v 0.514713 5.011184 -0.000000
v 0.504822 5.011184 0.100415
v 0.475532 5.011184 0.196972
v 0.427968 5.011184 0.285959
v 0.363957 5.011184 0.363957
v 0.285959 5.011184 0.427968
v 0.196972 5.011184 0.475532
v 0.100415 5.011184 0.504822
v 0.000000 5.011184 0.514713
v -0.100415 5.011184 0.504822
v -0.196972 5.011184 0.475532
v -0.285959 5.011184 0.427968
v -0.363957 5.011184 0.363957
v -0.427968 5.011184 0.285959
v -0.475532 5.011184 0.196972
v -0.504822 5.011184 0.100415
v -0.514713 5.011184 -0.000000
v -0.504822 5.011184 -0.100415
v -0.475532 5.011184 -0.196972
v -0.427968 5.011184 -0.285959
v -0.363957 5.011184 -0.363957
v -0.285959 5.011184 -0.427968
v -0.196972 5.011184 -0.475532
v -0.100415 5.011184 -0.504822
v 0.000000 5.076694 -0.415173
v 0.080996 5.076694 -0.407196
v 0.158880 5.076694 -0.383570
v 0.230658 5.076694 -0.345204
v 0.293572 5.076694 -0.293572
v 0.345204 5.076694 -0.230658
v 0.383570 5.076694 -0.158880
v 0.407196 5.076694 -0.080996
v 0.415173 5.076694 -0.000000
v 0.407196 5.076694 0.080996
v 0.383570 5.076694 0.158880
v 0.345204 5.076694 0.230658
v 0.293572 5.076694 0.293572
v 0.230658 5.076694 0.345204
v 0.158880 5.076694 0.383570
v 0.080996 5.076694 0.407196
v 0.000000 5.076694 0.415173
v -0.080996 5.076694 0.407196
v -0.158880 5.076694 0.383570
v -0.230658 5.076694 0.345204
v -0.293572 5.076694 0.293572
v -0.345204 5.076694 0.230658
v -0.383570 5.076694 0.158880
v -0.407196 5.076694 0.080996
v -0.415173 5.076694 -0.000000
v -0.407196 5.076694 -0.080996
v -0.383570 5.076694 -0.158880
v -0.345204 5.076694 -0.230658
v -0.293572 5.076694 -0.293572
v -0.230658 5.076694 -0.345204
v -0.158880 5.076694 -0.383570
v -0.080996 5.076694 -0.407196
v 0.000000 5.100249 -0.292033
v 0.056973 5.100249 -0.286422
v 0.111756 5.100249 -0.269804
v 0.162245 5.100249 -0.242817
v 0.206499 5.100249 -0.206499
v 0.242817 5.100249 -0.162245
v 0.269804 5.100249 -0.111756
v 0.286422 5.100249 -0.056973
v 0.292033 5.100249 -0.000000
v 0.286422 5.100249 0.056973
v 0.269804 5.100249 0.111756
v 0.242817 5.100249 0.162245
v 0.206499 5.100249 0.206499
v 0.162245 5.100249 0.242817
v 0.111756 5.100249 0.269804
v 0.056973 5.100249 0.286422
v 0.000000 5.100249 0.292033
v -0.056973 5.100249 0.286422
v -0.111756 5.100249 0.269804
v -0.162245 5.100249 0.242817
v -0.206499 5.100249 0.206499
v -0.242817 5.100249 0.162245
v -0.269804 5.100249 0.111756
v -0.286422 5.100249 0.056973
v -0.292033 5.100249 -0.000000
v -0.286422 5.100249 -0.056973
v -0.269804 5.100249 -0.111756
v -0.242817 5.100249 -0.162245
v -0.206499 5.100249 -0.206499
v -0.162245 5.100249 -0.242817
v -0.111756 5.100249 -0.269804
v -0.056973 5.100249 -0.286422
v 0.554457 4.362293 -0.229663
v 0.554457 4.623580 -0.229663
v 0.588608 4.623580 -0.117081
v 0.588608 4.362293 -0.117081
v 0.117081 4.362293 0.588608
v 0.117081 4.623580 0.588608
v 0.000000 4.623580 0.600139
v 0.000000 4.362293 0.600139
v -0.600139 4.362293 -0.000000
v -0.600139 4.623580 -0.000000
v -0.588608 4.623580 -0.117081
v -0.588608 4.362293 -0.117081
v 0.229663 4.362293 -0.554457
v 0.229663 4.623580 -0.554457
v 0.333420 4.623580 -0.498998
v 0.333420 4.362293 -0.498998
v 0.498998 4.362293 0.333420
v 0.498998 4.623580 0.333420
v 0.424363 4.623580 0.424363
v 0.424363 4.362293 0.424363
v -0.424363 4.362293 0.424363
v -0.424363 4.623580 0.424363
v -0.498998 4.623580 0.333420
v -0.498998 4.362293 0.333420
v -0.333420 4.362293 -0.498998
v -0.333420 4.623580 -0.498998
v -0.229663 4.623580 -0.554457
v -0.229663 4.362293 -0.554457
v 0.600139 4.623580 -0.000000
v 0.600139 4.362293 -0.000000
v -0.117081 4.623580 0.588608
v -0.117081 4.362293 0.588608
v -0.554457 4.623580 -0.229663
v -0.554457 4.362293 -0.229663
v 0.424363 4.623580 -0.424363
v 0.424363 4.362293 -0.424363
v 0.333420 4.623580 0.498998
v 0.333420 4.362293 0.498998
v -0.554457 4.623580 0.229663
v -0.554457 4.362293 0.229663
v -0.117081 4.623580 -0.588608
v -0.117081 4.362293 -0.588608
v 0.588608 4.623580 0.117081
v 0.588608 4.362293 0.117081
v -0.229663 4.623580 0.554457
v -0.229663 4.362293 0.554457
v -0.498998 4.623580 -0.333420
v -0.498998 4.362293 -0.333420
v 0.498998 4.623580 -0.333420
v 0.498998 4.362293 -0.333420
v 0.229663 4.623580 0.554457
v 0.229663 4.362293 0.554457
v -0.588608 4.623580 0.117081
v -0.588608 4.362293 0.117081
v 0.000000 4.362293 -0.600139
v 0.000000 4.623580 -0.600139
v 0.117081 4.623580 -0.588608
v 0.117081 4.362293 -0.588608
v 0.554457 4.623580 0.229663
v 0.554457 4.362293 0.229663
v -0.333420 4.623580 0.498998
v -0.333420 4.362293 0.498998
v -0.424363 4.623580 -0.424363
v -0.424363 4.362293 -0.424363
vn -0.0000 -0.3770 -0.9262
vn -0.0000 -0.0902 -0.9959
vn 0.1807 -0.3770 -0.9084
vn 0.1943 -0.0902 -0.9768
vn 0.3545 -0.3770 -0.8557
vn 0.3811 -0.0902 -0.9201
vn 0.5146 -0.3770 -0.7701
vn 0.5533 -0.0902 -0.8281
vn 0.6549 -0.3770 -0.6549
vn 0.7042 -0.0902 -0.7042
vn 0.7701 -0.3770 -0.5146
vn 0.8281 -0.0902 -0.5533
vn 0.8557 -0.3770 -0.3545
vn 0.9201 -0.0902 -0.3811
vn 0.9084 -0.3770 -0.1807
vn 0.9768 -0.0902 -0.1943
vn 0.9262 -0.3770 -0.0000
vn 0.9959 -0.0902 -0.0000
vn 0.9084 -0.3770 0.1807
vn 0.9768 -0.0902 0.1943
vn 0.8557 -0.3770 0.3545
vn 0.9201 -0.0902 0.3811
vn 0.7701 -0.3770 0.5146
vn 0.8281 -0.0902 0.5533
vn 0.6549 -0.3770 0.6549
vn 0.7042 -0.0902 0.7042
vn 0.5146 -0.3770 0.7701
vn 0.5533 -0.0902 0.8281
vn 0.3545 -0.3770 0.8557
vn 0.3811 -0.0902 0.9201
vn 0.1807 -0.3770 0.9084
vn 0.1943 -0.0902 0.9768
vn -0.0000 -0.3770 0.9262
vn -0.0000 -0.0902 0.9959
vn -0.1807 -0.3770 0.9084
vn -0.1943 -0.0902 0.9768
vn -0.3545 -0.3770 0.8557
vn -0.3811 -0.0902 0.9201
vn -0.5146 -0.3770 0.7701
vn -0.5533 -0.0902 0.8281
vn -0.6549 -0.3770 0.6549
vn -0.7042 -0.0902 0.7042
vn -0.7701 -0.3770 0.5146
vn -0.8281 -0.0902 0.5533
vn -0.8557 -0.3770 0.3545
vn -0.9201 -0.0902 0.3811
vn -0.9084 -0.3770 0.1807
vn -0.9768 -0.0902 0.1943
vn -0.9262 -0.3770 -0.0000
vn -0.9959 -0.0902 -0.0000
vn -0.9084 -0.3770 -0.1807
vn -0.9768 -0.0902 -0.1943
vn -0.8557 -0.3770 -0.3545
vn -0.9201 -0.0902 -0.3811
vn -0.7701 -0.3770 -0.5146
vn -0.8281 -0.0902 -0.5533
vn -0.6549 -0.3770 -0.6549
vn -0.7042 -0.0902 -0.7042
vn -0.5146 -0.3770 -0.7701
vn -0.5533 -0.0902 -0.8281
vn -0.3545 -0.3770 -0.8557
vn -0.3811 -0.0902 -0.9201
vn -0.1807 -0.3770 -0.9084
vn -0.1943 -0.0902 -0.9768
vn -0.0000 -0.7105 -0.7037
vn 0.1373 -0.7105 -0.6902
vn 0.2693 -0.7105 -0.6501
vn 0.3909 -0.7105 -0.5851
vn 0.4976 -0.7105 -0.4976
vn 0.5851 -0.7105 -0.3909
vn 0.6501 -0.7105 -0.2693
vn 0.6902 -0.7105 -0.1373
vn 0.7037 -0.7105 -0.0000
vn 0.6902 -0.7105 0.1373
vn 0.6501 -0.7105 0.2693
vn 0.5851 -0.7105 0.3909
vn 0.4976 -0.7105 0.4976
vn 0.3909 -0.7105 0.5851
vn 0.2693 -0.7105 0.6501
vn 0.1373 -0.7105 0.6902
vn -0.0000 -0.7105 0.7037
vn -0.1373 -0.7105 0.6902
vn -0.2693 -0.7105 0.6501
vn -0.3909 -0.7105 0.5851
vn -0.4976 -0.7105 0.4976
vn -0.5851 -0.7105 0.3909
vn -0.6501 -0.7105 0.2693
vn -0.6902 -0.7105 0.1373
vn -0.7037 -0.7105 -0.0000
vn -0.6902 -0.7105 -0.1373
vn -0.6501 -0.7105 -0.2693
vn -0.5851 -0.7105 -0.3909
vn -0.4976 -0.7105 -0.4976
vn -0.3909 -0.7105 -0.5851
vn -0.2693 -0.7105 -0.6501
vn -0.1373 -0.7105 -0.6902
vn -0.0000 -0.9239 -0.3826
vn 0.0746 -0.9239 -0.3752
vn 0.1464 -0.9239 -0.3534
vn 0.2125 -0.9239 -0.3181
vn 0.2705 -0.9239 -0.2705
vn 0.3181 -0.9239 -0.2125
vn 0.3534 -0.9239 -0.1464
vn 0.3752 -0.9239 -0.0746
vn 0.3826 -0.9239 -0.0000
vn 0.3752 -0.9239 0.0746
vn 0.3534 -0.9239 0.1464
vn 0.3181 -0.9239 0.2125
vn 0.2705 -0.9239 0.2705
vn 0.2125 -0.9239 0.3181
vn 0.1464 -0.9239 0.3534
vn 0.0746 -0.9239 0.3752
vn -0.0000 -0.9239 0.3826
vn -0.0746 -0.9239 0.3752
vn -0.1464 -0.9239 0.3534
vn -0.2125 -0.9239 0.3181
vn -0.2705 -0.9239 0.2705
vn -0.3181 -0.9239 0.2125
vn -0.3534 -0.9239 0.1464
vn -0.3752 -0.9239 0.0746
vn -0.3826 -0.9239 -0.0000
vn -0.3752 -0.9239 -0.0746
vn -0.3534 -0.9239 -0.1464
vn -0.3181 -0.9239 -0.2125
vn -0.2705 -0.9239 -0.2705
vn -0.2125 -0.9239 -0.3181
vn -0.1464 -0.9239 -0.3534
vn -0.0746 -0.9239 -0.3752
vn -0.0000 -0.9945 -0.1049
vn 0.0205 -0.9945 -0.1029
vn 0.0401 -0.9945 -0.0969
vn 0.0583 -0.9945 -0.0872
vn 0.0742 -0.9945 -0.0742
vn 0.0872 -0.9945 -0.0583
vn 0.0969 -0.9945 -0.0401
vn 0.1029 -0.9945 -0.0205
vn 0.1049 -0.9945 -0.0000
vn 0.1029 -0.9945 0.0205
vn 0.0969 -0.9945 0.0401
vn 0.0872 -0.9945 0.0583
vn 0.0742 -0.9945 0.0742
vn 0.0583 -0.9945 0.0872
vn 0.0401 -0.9945 0.0969
vn 0.0205 -0.9945 0.1029
vn -0.0000 -0.9945 0.1049
vn -0.0205 -0.9945 0.1029
vn -0.0401 -0.9945 0.0969
vn -0.0583 -0.9945 0.0872
vn -0.0742 -0.9945 0.0742
vn -0.0872 -0.9945 0.0583
vn -0.0969 -0.9945 0.0401
vn -0.1029 -0.9945 0.0205
vn -0.1049 -0.9945 -0.0000
vn -0.1029 -0.9945 -0.0205
vn -0.0969 -0.9945 -0.0401
vn -0.0872 -0.9945 -0.0583
vn -0.0742 -0.9945 -0.0742
vn -0.0583 -0.9945 -0.0872
vn -0.0401 -0.9945 -0.0969
vn -0.0205 -0.9945 -0.1029
vn -0.0000 0.1001 -0.9950
vn 0.1941 0.1001 -0.9759
vn 0.3808 0.1001 -0.9192
vn 0.5528 0.1001 -0.8273
vn 0.7036 0.1001 -0.7036
vn 0.8273 0.1001 -0.5528
vn 0.9192 0.1001 -0.3808
vn 0.9759 0.1001 -0.1941
vn 0.9950 0.1001 -0.0000
vn 0.9759 0.1001 0.1941
vn 0.9192 0.1001 0.3808
vn 0.8273 0.1001 0.5528
vn 0.7036 0.1001 0.7036
vn 0.5528 0.1001 0.8273
vn 0.3808 0.1001 0.9192
vn 0.1941 0.1001 0.9759
vn -0.0000 0.1001 0.9950
vn -0.1941 0.1001 0.9759
vn -0.3808 0.1001 0.9192
vn -0.5528 0.1001 0.8273
vn -0.7036 0.1001 0.7036
vn -0.8273 0.1001 0.5528
vn -0.9192 0.1001 0.3808
vn -0.9759 0.1001 0.1941
vn -0.9950 0.1001 -0.0000
vn -0.9759 0.1001 -0.1941
vn -0.9192 0.1001 -0.3808
vn -0.8273 0.1001 -0.5528
vn -0.7036 0.1001 -0.7036
vn -0.5528 0.1001 -0.8273
vn -0.3808 0.1001 -0.9192
vn -0.1941 0.1001 -0.9759
vn -0.0000 0.3762 -0.9266
vn 0.1808 0.3762 -0.9088
vn 0.3546 0.3762 -0.8560
vn 0.5148 0.3762 -0.7704
vn 0.6552 0.3762 -0.6552
vn 0.7704 0.3762 -0.5148
vn 0.8560 0.3762 -0.3546
vn 0.9088 0.3762 -0.1808
vn 0.9266 0.3762 -0.0000
vn 0.9088 0.3762 0.1808
vn 0.8560 0.3762 0.3546
vn 0.7704 0.3762 0.5148
vn 0.6552 0.3762 0.6552
vn 0.5148 0.3762 0.7704
vn 0.3546 0.3762 0.8560
vn 0.1808 0.3762 0.9088
vn -0.0000 0.3762 0.9266
vn -0.1808 0.3762 0.9088
vn -0.3546 0.3762 0.8560
vn -0.5148 0.3762 0.7704
vn -0.6552 0.3762 0.6552
vn -0.7704 0.3762 0.5148
vn -0.8560 0.3762 0.3546
vn -0.9088 0.3762 0.1808
vn -0.9266 0.3762 -0.0000
vn -0.9088 0.3762 -0.1808
vn -0.8560 0.3762 -0.3546
vn -0.7704 0.3762 -0.5148
vn -0.6552 0.3762 -0.6552
vn -0.5148 0.3762 -0.7704
vn -0.3546 0.3762 -0.8560
vn -0.1808 0.3762 -0.9088
vn -0.0000 0.7056 -0.7086
vn 0.1382 0.7056 -0.6950
vn 0.2712 0.7056 -0.6546
vn 0.3937 0.7056 -0.5892
vn 0.5010 0.7056 -0.5010
vn 0.5892 0.7056 -0.3937
vn 0.6546 0.7056 -0.2712
vn 0.6950 0.7056 -0.1382
vn 0.7086 0.7056 -0.0000
vn 0.6950 0.7056 0.1382
vn 0.6546 0.7056 0.2712
vn 0.5892 0.7056 0.3937
vn 0.5010 0.7056 0.5010
vn 0.3937 0.7056 0.5892
vn 0.2712 0.7056 0.6546
vn 0.1382 0.7056 0.6950
vn -0.0000 0.7056 0.7086
vn -0.1382 0.7056 0.6950
vn -0.2712 0.7056 0.6546
vn -0.3937 0.7056 0.5892
vn -0.5010 0.7056 0.5010
vn -0.5892 0.7056 0.3937
vn -0.6546 0.7056 0.2712
vn -0.6950 0.7056 0.1382
vn -0.7086 0.7056 -0.0000
vn -0.6950 0.7056 -0.1382
vn -0.6546 0.7056 -0.2712
vn -0.5892 0.7056 -0.3937
vn -0.5010 0.7056 -0.5010
vn -0.3937 0.7056 -0.5892
vn -0.2712 0.7056 -0.6546
vn -0.1382 0.7056 -0.6950
vn -0.0000 0.9266 -0.3760
vn 0.0734 0.9266 -0.3688
vn 0.1439 0.9266 -0.3474
vn 0.2089 0.9266 -0.3126
vn 0.2659 0.9266 -0.2659
vn 0.3126 0.9266 -0.2089
vn 0.3474 0.9266 -0.1439
vn 0.3688 0.9266 -0.0734
vn 0.3760 0.9266 -0.0000
vn 0.3688 0.9266 0.0734
vn 0.3474 0.9266 0.1439
vn 0.3126 0.9266 0.2089
vn 0.2659 0.9266 0.2659
vn 0.2089 0.9266 0.3126
vn 0.1439 0.9266 0.3474
vn 0.0734 0.9266 0.3688
vn -0.0000 0.9266 0.3760
vn -0.0734 0.9266 0.3688
vn -0.1439 0.9266 0.3474
vn -0.2089 0.9266 0.3126
vn -0.2659 0.9266 0.2659
vn -0.3126 0.9266 0.2089
vn -0.3474 0.9266 0.1439
vn -0.3688 0.9266 0.0734
vn -0.3760 0.9266 -0.0000
vn -0.3688 0.9266 -0.0734
vn -0.3474 0.9266 -0.1439
vn -0.3126 0.9266 -0.2089
vn -0.2659 0.9266 -0.2659
vn -0.2089 0.9266 -0.3126
vn -0.1439 0.9266 -0.3474
vn -0.0734 0.9266 -0.3688
vn -0.0000 0.9950 -0.0994
vn 0.0194 0.9950 -0.0975
vn 0.0380 0.9950 -0.0918
vn 0.0552 0.9950 -0.0826
vn 0.0703 0.9950 -0.0703
vn 0.0826 0.9950 -0.0552
vn 0.0918 0.9950 -0.0380
vn 0.0975 0.9950 -0.0194
vn 0.0994 0.9950 -0.0000
vn 0.0975 0.9950 0.0194
vn 0.0918 0.9950 0.0380
vn 0.0826 0.9950 0.0552
vn 0.0703 0.9950 0.0703
vn 0.0552 0.9950 0.0826
vn 0.0380 0.9950 0.0918
vn 0.0194 0.9950 0.0975
vn -0.0000 0.9950 0.0994
vn -0.0194 0.9950 0.0975
vn -0.0380 0.9950 0.0918
vn -0.0552 0.9950 0.0826
vn -0.0703 0.9950 0.0703
vn -0.0826 0.9950 0.0552
vn -0.0918 0.9950 0.0380
vn -0.0975 0.9950 0.0194
vn -0.0994 0.9950 -0.0000
vn -0.0975 0.9950 -0.0194
vn -0.0918 0.9950 -0.0380
vn -0.0826 0.9950 -0.0552
vn -0.0703 0.9950 -0.0703
vn -0.0552 0.9950 -0.0826
vn -0.0380 0.9950 -0.0918
vn -0.0194 0.9950 -0.0975
vn 0.9239 -0.0000 -0.3827
vn 0.9808 -0.0000 -0.1951
vn 0.1951 -0.0000 0.9808
vn -0.0000 -0.0000 1.0000
vn -1.0000 -0.0000 -0.0000
vn -0.9808 -0.0000 -0.1951
vn 0.3827 -0.0000 -0.9239
vn 0.5556 -0.0000 -0.8315
vn 0.8315 -0.0000 0.5556
vn 0.7071 -0.0000 0.7071
vn -0.7071 -0.0000 0.7071
vn -0.8315 -0.0000 0.5556
vn -0.5556 -0.0000 -0.8315
vn -0.3827 -0.0000 -0.9239
vn 1.0000 -0.0000 -0.0000
vn -0.1951 -0.0000 0.9808
vn -0.9239 -0.0000 -0.3827
vn 0.7071 -0.0000 -0.7071
vn 0.5556 -0.0000 0.8315
vn -0.9239 -0.0000 0.3827
vn -0.1951 -0.0000 -0.9808
vn 0.9808 -0.0000 0.1951
vn -0.3827 -0.0000 0.9239
vn -0.8315 -0.0000 -0.5556
vn 0.8315 -0.0000 -0.5556
vn 0.3827 -0.0000 0.9239
vn -0.9808 -0.0000 0.1951
vn -0.0000 -0.0000 -1.0000
vn 0.1951 -0.0000 -0.9808
vn 0.9239 -0.0000 0.3827
vn -0.5556 -0.0000 0.8315
vn -0.7071 -0.0000 -0.7071
vt 1.000000 0.500000
vt 1.000000 1.000000
vt 0.968750 1.000000
vt 0.968750 0.500000
vt 0.937500 1.000000
vt 0.937500 0.500000
vt 0.906250 1.000000
vt 0.906250 0.500000
vt 0.875000 1.000000
vt 0.875000 0.500000
vt 0.843750 1.000000
vt 0.843750 0.500000
vt 0.812500 1.000000
vt 0.812500 0.500000
vt 0.781250 1.000000
vt 0.781250 0.500000
vt 0.750000 1.000000
vt 0.750000 0.500000
vt 0.718750 1.000000
vt 0.718750 0.500000
vt 0.687500 1.000000
vt 0.687500 0.500000
vt 0.656250 1.000000
vt 0.656250 0.500000
vt 0.625000 1.000000
vt 0.625000 0.500000
vt 0.593750 1.000000
vt 0.593750 0.500000
vt 0.562500 1.000000
vt 0.562500 0.500000
vt 0.531250 1.000000
vt 0.531250 0.500000
vt 0.500000 1.000000
vt 0.500000 0.500000
vt 0.468750 1.000000
vt 0.468750 0.500000
vt 0.437500 1.000000
vt 0.437500 0.500000
vt 0.406250 1.000000
vt 0.406250 0.500000
vt 0.375000 1.000000
vt 0.375000 0.500000
vt 0.343750 1.000000
vt 0.343750 0.500000
vt 0.312500 1.000000
vt 0.312500 0.500000
vt 0.281250 1.000000
vt 0.281250 0.500000
vt 0.250000 1.000000
vt 0.250000 0.500000
vt 0.218750 1.000000
vt 0.218750 0.500000
vt 0.187500 1.000000
vt 0.187500 0.500000
vt 0.156250 1.000000
vt 0.156250 0.500000
vt 0.125000 1.000000
vt 0.125000 0.500000
vt 0.093750 1.000000
vt 0.093750 0.500000
vt 0.062500 1.000000
vt 0.062500 0.500000
vt 0.031250 1.000000
vt 0.031250 0.500000
vt 0.000000 1.000000
vt 0.000000 0.500000
vt 0.468750 1.000000
vt 0.843750 1.000000
vt 0.937500 1.000000
s 1
f 153/257/155 154/258/156 156/259/158 155/260/157
f 155/260/157 156/259/158 158/261/160 157/262/159
f 157/262/159 158/261/160 160/263/162 159/264/161
f 159/264/161 160/263/162 162/265/164 161/266/163
f 161/266/163 162/265/164 164/267/166 163/268/165
f 163/268/165 164/267/166 166/269/168 165/270/167
f 165/270/167 166/269/168 168/271/170 167/272/169
f 167/272/169 168/271/170 170/273/172 169/274/171
f 169/274/171 170/273/172 172/275/174 171/276/173
f 171/276/173 172/275/174 174/277/176 173/278/175
f 173/278/175 174/277/176 176/279/178 175/280/177
f 175/280/177 176/279/178 178/281/180 177/282/179
f 177/282/179 178/281/180 180/283/182 179/284/181
f 179/284/181 180/283/182 182/285/184 181/286/183
f 181/286/183 182/285/184 184/287/186 183/288/185
f 183/288/185 184/287/186 186/289/188 185/290/187
f 185/290/187 186/289/188 188/291/190 187/292/189
f 187/292/189 188/291/190 190/293/192 189/294/191
f 189/294/191 190/293/192 192/295/194 191/296/193
f 191/296/193 192/295/194 194/297/196 193/298/195
f 193/298/195 194/297/196 196/299/198 195/300/197
f 195/300/197 196/299/198 198/301/200 197/302/199
f 197/302/199 198/301/200 200/303/202 199/304/201
f 199/304/201 200/303/202 202/305/204 201/306/203
f 201/306/203 202/305/204 204/307/206 203/308/205
f 203/308/205 204/307/206 206/309/208 205/310/207
f 205/310/207 206/309/208 208/311/210 207/312/209
f 207/312/209 208/311/210 210/313/212 209/314/211
f 209/314/211 210/313/212 212/315/214 211/316/213
f 211/316/213 212/315/214 214/317/216 213/318/215
f 475/271/476 474/269/475 319/269/321 320/271/322
f 213/318/215 214/317/216 216/319/218 215/320/217
f 215/320/217 216/319/218 154/321/156 153/322/155
f 157/262/159 159/264/161 220/264/222 219/262/221
f 235/294/237 236/296/238 268/296/270 267/294/269
f 175/280/177 177/282/179 229/282/231 228/280/230
f 193/298/195 195/300/197 238/300/240 237/298/239
f 211/316/213 213/318/215 247/318/249 246/316/248
f 167/272/169 169/274/171 225/274/227 224/272/226
f 185/290/187 187/292/189 234/292/236 233/290/235
f 203/308/205 205/310/207 243/310/245 242/308/244
f 159/264/161 161/266/163 221/266/223 220/264/222
f 177/282/179 179/284/181 230/284/232 229/282/231
f 195/300/197 197/302/199 239/302/241 238/300/240
f 213/318/215 215/320/217 248/320/250 247/318/249
f 169/274/171 171/276/173 226/276/228 225/274/227
f 187/292/189 189/294/191 235/294/237 234/292/236
f 205/310/207 207/312/209 244/312/246 243/310/245
f 161/266/163 163/268/165 222/268/224 221/266/223
f 179/284/181 181/286/183 231/286/233 230/284/232
f 197/302/199 199/304/201 240/304/242 239/302/241
f 153/257/155 155/260/157 218/260/220 217/257/219
f 215/320/217 153/322/155 217/322/219 248/320/250
f 171/276/173 173/278/175 227/278/229 226/276/228
f 189/294/191 191/296/193 236/296/238 235/294/237
f 207/312/209 209/314/211 245/314/247 244/312/246
f 163/268/165 165/270/167 223/270/225 222/268/224
f 181/286/183 183/288/185 232/288/234 231/286/233
f 199/304/201 201/306/203 241/306/243 240/304/242
f 155/260/157 157/262/159 219/262/221 218/260/220
f 173/278/175 175/280/177 228/280/230 227/278/229
f 191/296/193 193/298/195 237/298/239 236/296/238
f 209/314/211 211/316/213 246/316/248 245/314/247
f 165/270/167 167/272/169 224/272/226 223/270/225
f 183/288/185 185/290/187 233/290/235 232/288/234
f 201/306/203 203/308/205 242/308/244 241/306/243
f 270/300/272 271/302/273 303/302/305 302/300/304
f 222/268/224 223/270/225 255/270/257 254/268/256
f 236/296/238 237/298/239 269/298/271 268/296/270
f 223/270/225 224/272/226 256/272/258 255/270/257
f 237/298/239 238/300/240 270/300/272 269/298/271
f 224/272/226 225/274/227 257/274/259 256/272/258
f 238/300/240 239/302/241 271/302/273 270/300/272
f 225/274/227 226/276/228 258/276/260 257/274/259
f 239/302/241 240/304/242 272/304/274 271/302/273
f 226/276/228 227/278/229 259/278/261 258/276/260
f 240/304/242 241/306/243 273/306/275 272/304/274
f 227/278/229 228/280/230 260/280/262 259/278/261
f 241/306/243 242/308/244 274/308/276 273/306/275
f 228/280/230 229/282/231 261/282/263 260/280/262
f 242/308/244 243/310/245 275/310/277 274/308/276
f 229/282/231 230/284/232 262/284/264 261/282/263
f 243/310/245 244/312/246 276/312/278 275/310/277
f 230/284/232 231/286/233 263/286/265 262/284/264
f 217/257/219 218/260/220 250/260/252 249/257/251
f 244/312/246 245/314/247 277/314/279 276/312/278
f 231/286/233 232/288/234 264/288/266 263/286/265
f 218/260/220 219/262/221 251/262/253 250/260/252
f 245/314/247 246/316/248 278/316/280 277/314/279
f 232/288/234 233/290/235 265/290/267 264/288/266
f 219/262/221 220/264/222 252/264/254 251/262/253
f 246/316/248 247/318/249 279/318/281 278/316/280
f 233/290/235 234/292/236 266/292/268 265/290/267
f 220/264/222 221/266/223 253/266/255 252/264/254
f 247/318/249 248/320/250 280/320/282 279/318/281
f 234/292/236 235/294/237 267/294/269 266/292/268
f 221/266/223 222/268/224 254/268/256 253/266/255
f 248/320/250 217/322/219 249/322/251 280/320/282
f 281/257/283 282/260/284 283/262/285 284/264/286 285/266/287 286/268/288 287/270/289 288/272/290 289/274/291 290/276/292 291/278/293 292/280/294 293/282/295 294/284/296 295/286/297 296/288/298 297/290/299 298/292/300 299/294/301 300/296/302 301/298/303 302/300/304 303/302/305 304/304/306 305/306/307 306/308/308 307/310/309 308/312/310 309/314/311 310/316/312 311/318/313 312/320/314
f 257/274/259 258/276/260 290/276/292 289/274/291
f 271/302/273 272/304/274 304/304/306 303/302/305
f 258/276/260 259/278/261 291/278/293 290/276/292
f 272/304/274 273/306/275 305/306/307 304/304/306
f 259/278/261 260/280/262 292/280/294 291/278/293
f 273/306/275 274/308/276 306/308/308 305/306/307
f 260/280/262 261/282/263 293/282/295 292/280/294
f 274/308/276 275/310/277 307/310/309 306/308/308
f 261/282/263 262/284/264 294/284/296 293/282/295
f 275/310/277 276/312/278 308/312/310 307/310/309
f 262/284/264 263/286/265 295/286/297 294/284/296
f 249/257/251 250/260/252 282/260/284 281/257/283
f 276/312/278 277/314/279 309/314/311 308/312/310
f 263/286/265 264/288/266 296/288/298 295/286/297
f 250/260/252 251/262/253 283/262/285 282/260/284
f 277/314/279 278/316/280 310/316/312 309/314/311
f 264/288/266 265/290/267 297/290/299 296/288/298
f 251/262/253 252/264/254 284/264/286 283/262/285
f 278/316/280 279/318/281 311/318/313 310/316/312
f 265/290/267 266/292/268 298/292/300 297/290/299
f 252/264/254 253/266/255 285/266/287 284/264/286
f 279/318/281 280/320/282 312/320/314 311/318/313
f 266/292/268 267/294/269 299/294/301 298/292/300
f 253/266/255 254/268/256 286/268/288 285/266/287
f 280/320/282 249/322/251 281/322/283 312/320/314
f 267/294/269 268/296/270 300/296/302 299/294/301
f 254/268/256 255/270/257 287/270/289 286/268/288
f 268/296/270 269/298/271 301/298/303 300/296/302
f 255/270/257 256/272/258 288/272/290 287/270/289
f 269/298/271 270/300/272 302/300/304 301/298/303
f 256/272/258 257/274/259 289/274/291 288/272/290
f 314/259/316 313/258/315 345/258/347 346/259/348
f 479/289/478 478/287/477 328/287/330 329/289/331
f 483/307/480 482/305/479 337/305/339 338/307/340
f 487/263/482 486/261/481 315/261/317 316/263/318
f 491/281/484 490/279/483 324/279/326 325/281/327
f 495/299/486 494/297/485 333/297/335 334/299/336
f 499/317/488 498/315/487 342/315/344 343/317/345
f 501/273/489 475/271/476 320/271/322 321/273/323
f 503/323/490 479/289/478 329/289/331 330/291/332
f 505/309/491 483/307/480 338/307/340 339/309/341
f 507/265/492 487/263/482 316/263/318 317/265/319
f 509/283/493 491/281/484 325/281/327 326/283/328
f 511/301/494 495/299/486 334/299/336 335/301/337
f 513/319/495 499/317/488 343/317/345 344/319/346
f 515/275/496 501/273/489 321/273/323 322/275/324
f 517/293/497 503/323/490 330/291/332 331/293/333
f 519/311/498 505/309/491 339/309/341 340/311/342
f 521/324/499 507/265/492 317/265/319 318/267/320
f 523/285/500 509/283/493 326/283/328 327/285/329
f 525/303/501 511/301/494 335/301/337 336/303/338
f 529/259/503 528/258/502 313/258/315 314/259/316
f 528/321/502 513/319/495 344/319/346 313/321/315
f 531/277/504 515/275/496 322/275/324 323/277/325
f 533/295/505 517/293/497 331/293/333 332/295/334
f 535/313/506 519/311/498 340/311/342 341/313/343
f 474/269/475 521/324/499 318/267/320 319/269/321
f 478/287/477 523/285/500 327/285/329 328/287/330
f 482/305/479 525/303/501 336/303/338 337/305/339
f 486/261/481 529/259/503 314/259/316 315/261/317
f 490/279/483 531/277/504 323/277/325 324/279/326
f 494/297/485 533/295/505 332/295/334 333/297/335
f 498/315/487 535/313/506 341/313/343 342/315/344
f 349/265/351 348/263/350 380/263/382 381/265/383
f 341/313/343 340/311/342 372/311/374 373/313/375
f 328/287/330 327/285/329 359/285/361 360/287/362
f 315/261/317 314/259/316 346/259/348 347/261/349
f 342/315/344 341/313/343 373/313/375 374/315/376
f 329/289/331 328/287/330 360/287/362 361/289/363
f 316/263/318 315/261/317 347/261/349 348/263/350
f 343/317/345 342/315/344 374/315/376 375/317/377
f 330/291/332 329/289/331 361/289/363 362/291/364
f 317/265/319 316/263/318 348/263/350 349/265/351
f 344/319/346 343/317/345 375/317/377 376/319/378
f 331/293/333 330/291/332 362/291/364 363/293/365
f 318/267/320 317/265/319 349/265/351 350/267/352
f 313/321/315 344/319/346 376/319/378 345/321/347
f 332/295/334 331/293/333 363/293/365 364/295/366
f 319/269/321 318/267/320 350/267/352 351/269/353
f 333/297/335 332/295/334 364/295/366 365/297/367
f 320/271/322 319/269/321 351/269/353 352/271/354
f 334/299/336 333/297/335 365/297/367 366/299/368
f 321/273/323 320/271/322 352/271/354 353/273/355
f 335/301/337 334/299/336 366/299/368 367/301/369
f 322/275/324 321/273/323 353/273/355 354/275/356
f 336/303/338 335/301/337 367/301/369 368/303/370
f 323/277/325 322/275/324 354/275/356 355/277/357
f 337/305/339 336/303/338 368/303/370 369/305/371
f 324/279/326 323/277/325 355/277/357 356/279/358
f 338/307/340 337/305/339 369/305/371 370/307/372
f 325/281/327 324/279/326 356/279/358 357/281/359
f 339/309/341 338/307/340 370/307/372 371/309/373
f 326/283/328 325/281/327 357/281/359 358/283/360
f 340/311/342 339/309/341 371/309/373 372/311/374
f 327/285/329 326/283/328 358/283/360 359/285/361
f 384/271/386 383/269/385 415/269/417 416/271/418
f 376/319/378 375/317/377 407/317/409 408/319/410
f 363/293/365 362/291/364 394/291/396 395/293/397
f 350/267/352 349/265/351 381/265/383 382/267/384
f 345/321/347 376/319/378 408/319/410 377/321/379
f 364/295/366 363/293/365 395/293/397 396/295/398
f 351/269/353 350/267/352 382/267/384 383/269/385
f 365/297/367 364/295/366 396/295/398 397/297/399
f 352/271/354 351/269/353 383/269/385 384/271/386
f 366/299/368 365/297/367 397/297/399 398/299/400
f 353/273/355 352/271/354 384/271/386 385/273/387
f 367/301/369 366/299/368 398/299/400 399/301/401
f 354/275/356 353/273/355 385/273/387 386/275/388
f 368/303/370 367/301/369 399/301/401 400/303/402
f 355/277/357 354/275/356 386/275/388 387/277/389
f 369/305/371 368/303/370 400/303/402 401/305/403
f 356/279/358 355/277/357 387/277/389 388/279/390
f 370/307/372 369/305/371 401/305/403 402/307/404
f 357/281/359 356/279/358 388/279/390 389/281/391
f 371/309/373 370/307/372 402/307/404 403/309/405
f 358/283/360 357/281/359 389/281/391 390/283/392
f 372/311/374 371/309/373 403/309/405 404/311/406
f 359/285/361 358/283/360 390/283/392 391/285/393
f 346/259/348 345/258/347 377/258/379 378/259/380
f 373/313/375 372/311/374 404/311/406 405/313/407
f 360/287/362 359/285/361 391/285/393 392/287/394
f 347/261/349 346/259/348 378/259/380 379/261/381
f 374/315/376 373/313/375 405/313/407 406/315/408
f 361/289/363 360/287/362 392/287/394 393/289/395
f 348/263/350 347/261/349 379/261/381 380/263/382
f 375/317/377 374/315/376 406/315/408 407/317/409
f 362/291/364 361/289/363 393/289/395 394/291/396
f 419/277/421 418/275/420 450/275/452 451/277/453
f 398/299/400 397/297/399 429/297/431 430/299/432
f 385/273/387 384/271/386 416/271/418 417/273/419
f 399/301/401 398/299/400 430/299/432 431/301/433
f 386/275/388 385/273/387 417/273/419 418/275/420
f 400/303/402 399/301/401 431/301/433 432/303/434
f 387/277/389 386/275/388 418/275/420 419/277/421
f 401/305/403 400/303/402 432/303/434 433/305/435
f 388/279/390 387/277/389 419/277/421 420/279/422
f 402/307/404 401/305/403 433/305/435 434/307/436
f 389/281/391 388/279/390 420/279/422 421/281/423
f 403/309/405 402/307/404 434/307/436 435/309/437
f 390/283/392 389/281/391 421/281/423 422/283/424
f 404/311/406 403/309/405 435/309/437 436/311/438
f 391/285/393 390/283/392 422/283/424 423/285/425
f 378/259/380 377/258/379 409/258/411 410/259/412
f 405/313/407 404/311/406 436/311/438 437/313/439
f 392/287/394 391/285/393 423/285/425 424/287/426
f 379/261/381 378/259/380 410/259/412 411/261/413
f 406/315/408 405/313/407 437/313/439 438/315/440
f 393/289/395 392/287/394 424/287/426 425/289/427
f 380/263/382 379/261/381 411/261/413 412/263/414
f 407/317/409 406/315/408 438/315/440 439/317/441
f 394/291/396 393/289/395 425/289/427 426/291/428
f 381/265/383 380/263/382 412/263/414 413/265/415
f 408/319/410 407/317/409 439/317/441 440/319/442
f 395/293/397 394/291/396 426/291/428 427/293/429
f 382/267/384 381/265/383 413/265/415 414/267/416
f 377/321/379 408/319/410 440/319/442 409/321/411
f 396/295/398 395/293/397 427/293/429 428/295/430
f 383/269/385 382/267/384 414/267/416 415/269/417
f 397/297/399 396/295/398 428/295/430 429/297/431
f 442/259/444 441/258/443 472/319/474 471/317/473 470/315/472 469/313/471 468/311/470 467/309/469 466/307/468 465/305/467 464/303/466 463/301/465 462/299/464 461/297/463 460/295/462 459/293/461 458/291/460 457/289/459 456/287/458 455/285/457 454/283/456 453/281/455 452/279/454 451/277/453 450/275/452 449/273/451 448/271/450 447/269/449 446/267/448 445/265/447 444/263/446 443/261/445
f 433/305/435 432/303/434 464/303/466 465/305/467
f 420/279/422 419/277/421 451/277/453 452/279/454
f 434/307/436 433/305/435 465/305/467 466/307/468
f 421/281/423 420/279/422 452/279/454 453/281/455
f 435/309/437 434/307/436 466/307/468 467/309/469
f 422/283/424 421/281/423 453/281/455 454/283/456
f 436/311/438 435/309/437 467/309/469 468/311/470
f 423/285/425 422/283/424 454/283/456 455/285/457
f 410/259/412 409/258/411 441/258/443 442/259/444
f 437/313/439 436/311/438 468/311/470 469/313/471
f 424/287/426 423/285/425 455/285/457 456/287/458
f 411/261/413 410/259/412 442/259/444 443/261/445
f 438/315/440 437/313/439 469/313/471 470/315/472
f 425/289/427 424/287/426 456/287/458 457/289/459
f 412/263/414 411/261/413 443/261/445 444/263/446
f 439/317/441 438/315/440 470/315/472 471/317/473
f 426/291/428 425/289/427 457/289/459 458/291/460
f 413/265/415 412/263/414 444/263/446 445/265/447
f 440/319/442 439/317/441 471/317/473 472/319/474
f 427/293/429 426/291/428 458/291/460 459/293/461
f 414/267/416 413/265/415 445/265/447 446/267/448
f 409/321/411 440/319/442 472/319/474 441/321/443
f 428/295/430 427/293/429 459/293/461 460/295/462
f 415/269/417 414/267/416 446/267/448 447/269/449
f 429/297/431 428/295/430 460/295/462 461/297/463
f 416/271/418 415/269/417 447/269/449 448/271/450
f 430/299/432 429/297/431 461/297/463 462/299/464
f 417/273/419 416/271/418 448/271/450 449/273/451
f 431/301/433 430/299/432 462/299/464 463/301/465
f 418/275/420 417/273/419 449/273/451 450/275/452
f 432/303/434 431/301/433 463/301/465 464/303/466
f 212/315/214 210/313/212 536/313/506 497/315/487
f 497/315/487 536/313/506 535/313/506 498/315/487
f 194/297/196 192/295/194 534/295/505 493/297/485
f 493/297/485 534/295/505 533/295/505 494/297/485
f 176/279/178 174/277/176 532/277/504 489/279/483
f 489/279/483 532/277/504 531/277/504 490/279/483
f 158/261/160 156/259/158 530/259/503 485/325/481
f 485/325/481 530/259/503 529/259/503 486/261/481
f 202/305/204 200/303/202 526/303/501 481/305/479
f 481/305/479 526/303/501 525/303/501 482/305/479
f 184/287/186 182/285/184 524/285/500 477/287/477
f 477/287/477 524/285/500 523/285/500 478/287/477
f 166/269/168 164/267/166 522/267/499 473/269/475
f 473/269/475 522/267/499 521/324/499 474/269/475
f 210/313/212 208/311/210 520/311/498 536/313/506
f 536/313/506 520/311/498 519/311/498 535/313/506
f 192/295/194 190/293/192 518/293/497 534/295/505
f 534/295/505 518/293/497 517/293/497 533/295/505
f 174/277/176 172/275/174 516/275/496 532/277/504
f 532/277/504 516/275/496 515/275/496 531/277/504
f 154/321/156 216/319/218 514/319/495 527/321/502
f 527/321/502 514/319/495 513/319/495 528/321/502
f 156/259/158 154/258/156 527/258/502 530/259/503
f 530/259/503 527/258/502 528/258/502 529/259/503
f 200/303/202 198/301/200 512/301/494 526/303/501
f 526/303/501 512/301/494 511/301/494 525/303/501
f 182/285/184 180/283/182 510/283/493 524/285/500
f 524/285/500 510/283/493 509/283/493 523/285/500
f 164/267/166 162/265/164 508/265/492 522/267/499
f 522/267/499 508/265/492 507/265/492 521/324/499
f 208/311/210 206/309/208 506/309/491 520/311/498
f 520/311/498 506/309/491 505/309/491 519/311/498
f 190/293/192 188/291/190 504/291/490 518/293/497
f 518/293/497 504/291/490 503/323/490 517/293/497
f 172/275/174 170/273/172 502/273/489 516/275/496
f 516/275/496 502/273/489 501/273/489 515/275/496
f 216/319/218 214/317/216 500/317/488 514/319/495
f 514/319/495 500/317/488 499/317/488 513/319/495
f 198/301/200 196/299/198 496/299/486 512/301/494
f 512/301/494 496/299/486 495/299/486 511/301/494
f 180/283/182 178/281/180 492/281/484 510/283/493
f 510/283/493 492/281/484 491/281/484 509/283/493
f 162/265/164 160/263/162 488/263/482 508/265/492
f 508/265/492 488/263/482 487/263/482 507/265/492
f 206/309/208 204/307/206 484/307/480 506/309/491
f 506/309/491 484/307/480 483/307/480 505/309/491
f 188/291/190 186/289/188 480/289/478 504/291/490
f 504/291/490 480/289/478 479/289/478 503/323/490
f 170/273/172 168/271/170 476/271/476 502/273/489
f 502/273/489 476/271/476 475/271/476 501/273/489
f 214/317/216 212/315/214 497/315/487 500/317/488
f 500/317/488 497/315/487 498/315/487 499/317/488
f 196/299/198 194/297/196 493/297/485 496/299/486
f 496/299/486 493/297/485 494/297/485 495/299/486
f 178/281/180 176/279/178 489/279/483 492/281/484
f 492/281/484 489/279/483 490/279/483 491/281/484
f 160/263/162 158/261/160 485/325/481 488/263/482
f 488/263/482 485/325/481 486/261/481 487/263/482
f 204/307/206 202/305/204 481/305/479 484/307/480
f 484/307/480 481/305/479 482/305/479 483/307/480
f 186/289/188 184/287/186 477/287/477 480/289/478
f 480/289/478 477/287/477 478/287/477 479/289/478
f 168/271/170 166/269/168 473/269/475 476/271/476
f 476/271/476 473/269/475 474/269/475 475/271/476
